PathFileType	4	(X/Y/Z)	C:/Users/beibeiliu/ov580/test_trc/User3\sequence.26_training_dense_left.trc
DataRate	CameraRate	NumFrames	NumMarkers	Units	OrigDataRate	OrigDataStartFrame	OrigNumFrames
120	120	11	19	mm	120	1	102
Frame#	Time	ThumbCMC			ThumbMCP			ThumbIP			ThumbTip			IndexMCP			IndexPIP			IndexTip			MiddleMCP			MiddlePIP			MiddleTip			RingMCP			RingPIP			RingTip			PinkyMCP			PinkyPIP			PinkyTip			BackHand1			BackHand2			BackHand3	
		X0	Y0	Z0	X1	Y1	Z1	X2	Y2	Z2	X3	Y3	Z3	X4	Y4	Z4	X5	Y5	Z5	X6	Y6	Z6	X7	Y7	Z7	X8	Y8	Z8	X9	Y9	Z9	X10	Y10	Z10	X11	Y11	Z11	X12	Y12	Z12	X13	Y13	Z13	X14	Y14	Z14	X15	Y15	Z15	X16	Y16	Z16	X17	Y17	Z17	X18	Y18	Z18	
0	0	-129.077	13.4757	18.1818	-118.758	15.3544	-14.3771	-113.364	20.022	-45.4481	-123.299	15.9025	-73.3554	-170.667	47.8342	-39.4688	-162.898	48.1184	-69.7135	-145.501	28.6237	-92.6183	-188.654	41.446	-45.0779	-183.377	39.1694	-77.8789	-163.696	14.0075	-97.1349	-199.04	25.3427	-43.9933	-196.724	22.2929	-71.244	-179.274	2.03995	-89.3781	-209.13	1.51973	-36.9126	-205.715	-0.0589079	-59.7907	-186.308	-9.35107	-79.0351	-198.448	12.3507	10.6183	-190.494	-5.40106	40.1803	-169.306	24.0129	27.0526	
1	0.00833333	-131.306	11.5841	16.3827	-118.934	14.7175	-14.9357	-118.025	16.0472	-43.6812	-122.403	12.791	-71.8253	-171.551	45.2896	-41.1146	-163.847	43.3865	-73.7119	-147.058	24.6673	-93.0514	-188.668	39.7671	-47.9106	-183.916	37.8439	-76.2202	-163.67	11.1013	-97.2816	-202.748	20.0211	-42.8585	-195.46	19.9281	-71.3791	-174.952	-2.9257	-91.2694	-206.654	-1.45872	-33.1099	-203.192	-3.59388	-64.4913	-188.742	-13.5484	-80.6702	-198.687	6.26912	12.5534	-191.351	-4.59973	38.4065	-169.054	23.0218	24.9557	
2	0.0166667	-130.826	8.86535	17.6621	-119.483	11.3215	-12.2881	-115.472	15.5452	-47.5055	-120.443	10.1749	-67.3162	-167.888	46.3761	-45.2032	-164.39	41.6954	-71.9578	-145.688	27.9374	-91.4182	-190.888	35.525	-45.2402	-183.969	34.5724	-77.4141	-162.24	12.2352	-97.0936	-198.557	20.1244	-40.6986	-193.482	15.3759	-74.997	-175.891	-5.36448	-90.5365	-208.416	-3.28408	-34.6866	-204.262	-6.1678	-62.9293	-186.663	-15.8186	-78.6012	-199.728	4.55211	11.9413	-190.09	-6.91357	36.9864	-169.582	18.891	26.6331	
3	0.025	-130.003	11.7307	13.6059	-121.326	10.8642	-14.9024	-116.346	13.2792	-45.2618	-118.544	8.7572	-67.067	-170.484	42.6386	-44.9388	-160.912	41.3053	-75.4972	-150.874	23.4005	-90.908	-189.201	34.9498	-44.0423	-183.807	32.1204	-79.4131	-164.216	8.4783	-97.349	-199.076	19.4884	-43.3234	-195.351	13.6303	-74.3563	-178.396	-2.30504	-89.4904	-204.486	-3.6619	-32.7082	-202.802	-3.63742	-61.9143	-187.841	-16.5097	-80.8028	-198.838	4.70748	8.81221	-193.88	-9.85227	35.8466	-169.999	20.2589	24.1641	
4	0.0333333	-133.636	7.19941	17.2219	-121.712	11.263	-16.3683	-114.114	13.0756	-44.4966	-118.679	8.54929	-69.7902	-169.65	43.8433	-41.4774	-164.959	41.819	-71.4379	-148.219	25.8021	-91.3378	-189.844	37.5323	-48.9032	-181.595	31.5272	-80.542	-164.106	10.5026	-97.2539	-203.164	14.4871	-43.2477	-195.117	13.1636	-75.4898	-177.039	-7.82806	-89.8465	-209.495	-6.83114	-36.1713	-203.069	-4.0006	-59.9396	-188.193	-17.4536	-80.6941	-201.279	4.02859	10.27	-191.417	-5.97792	35.6096	-171.316	18.4489	23.7137	
5	0.0416667	-135.834	8.76258	14.0443	-123.846	10.6128	-14.8863	-119.485	13.2122	-46.4758	-120.801	8.17074	-70.5217	-170.283	43.069	-40.2056	-166.911	36.8902	-74.1479	-149.828	24.3586	-90.6531	-193.392	32.401	-48.551	-184.663	31.2142	-78.6956	-166.57	6.32098	-96.892	-204.723	12.7925	-43.3377	-198.065	9.29355	-75.1001	-181.087	-8.39006	-89.2234	-209.246	-6.29613	-34.7667	-205.26	-5.43297	-58.4121	-189.159	-19.6448	-78.46	-198.845	3.14144	13.4554	-193.401	-10.0889	36.9103	-169.914	19.0405	25.2876	
6	0.05	-134.491	9.86692	15.1411	-122.588	11.3233	-15.5198	-119.254	10.0769	-42.0131	-122.994	7.19958	-67.1602	-174.7	39.9092	-44.6113	-166.221	39.8928	-70.1883	-152.634	22.1864	-90.306	-195	30.8055	-48.6697	-186.368	30.9923	-76.3299	-164.941	5.42043	-97.9662	-201.73	14.2008	-40.0871	-199.356	10.1383	-72.0234	-177.123	-8.24076	-90.8438	-211.364	-8.93833	-35.0479	-204.445	-9.08041	-62.8888	-188.846	-20.5007	-79.2628	-197.427	1.63286	13.3353	-194.713	-12.2776	38.9792	-173.747	16.9189	27.6358	
7	0.0583333	-133.554	7.24095	20.0917	-122.169	8.72058	-12.0869	-117.692	12.449	-45.2852	-120.298	7.21648	-68.5272	-174.385	40.0026	-42.7608	-164.741	37.0685	-73.6613	-154.131	20.7706	-90.6028	-193.737	30.8189	-47.6746	-187.046	28.5519	-76.3483	-161.143	4.10517	-97.3195	-202.109	13.8067	-40.7023	-200.892	6.74586	-71.8614	-181.826	-9.7173	-88.6594	-211.998	-8.03727	-36.1093	-206.217	-8.91622	-58.9806	-186.576	-22.1906	-79.3056	-202.028	-2.30315	13.8545	-195.342	-12.0611	38.0346	-172.335	18.9685	27.9559	
8	0.0666667	-134.446	5.95796	17.2368	-124.448	7.29936	-14.3423	-121.132	8.64404	-42.5017	-124.788	5.5036	-69.6783	-173.947	38.4695	-40.2871	-166.281	34.8512	-74.3888	-147.949	18.541	-92.1225	-193.348	29.7397	-43.8427	-188.139	24.3512	-79.0608	-165.444	3.07677	-96.3176	-204.148	11.9764	-42.0553	-201.337	6.37423	-71.3164	-178.576	-10.1263	-89.2121	-212.002	-11.3485	-31.4125	-207.44	-9.76824	-57.4951	-189.945	-23.131	-78.5761	-200.148	-0.984747	12.7185	-194.471	-14.9026	40.628	-171.929	14.8094	27.6208	
9	0.075	-136.178	3.89113	18.9677	-121.12	7.92927	-14.442	-116.403	9.63811	-41.9324	-124.224	2.92691	-65.5771	-173.498	38.0958	-41.6998	-170.355	34.5109	-70.575	-153.311	17.6503	-91.5133	-192.977	30.5158	-46.034	-186.512	27.505	-77.6001	-166.154	3.83467	-95.912	-202.364	13.9314	-42.5498	-203.385	5.99637	-70.3912	-181.392	-11.2686	-88.3878	-208.487	-9.86217	-29.701	-206.997	-11.8438	-59.7654	-189.996	-22.4135	-76.8838	-202.739	-3.11317	13.4978	-196.264	-12.6721	37.7846	-171.543	15.0219	28.521	
10	0.0833333	-135.196	6.02394	16.8967	-122.92	6.83329	-13.7359	-118.825	7.99195	-43.9953	-123.628	3.25522	-69.7314	-175.185	35.3073	-43.3036	-167.422	34.334	-71.8858	-151.88	13.8781	-91.8407	-194.366	28.8545	-48.2351	-187.578	25.7278	-76.8892	-169.381	0.527048	-96.2864	-206.334	7.51676	-41.973	-202.624	5.14333	-70.9662	-180.038	-12.4184	-90.0639	-208.441	-10.8142	-30.4656	-207.313	-11.6438	-59.781	-190.282	-23.3013	-76.7464	-202.412	-3.88362	13.3726	-195.288	-13.1665	36.0398	-174.073	14.2872	27.3226	
